<?xml version="1.0" encoding="UTF-8" standalone="no"?>
<svg
   version="1.1"
   id="Capa_1"
   x="0px"
   y="0px"
   width="97px"
   height="97px"
   viewBox="0 0 97 97"
   enable-background="new 0 0 97 97"
   xml:space="preserve"
   sodipodi:docname="mammo_imaging_result.svg"
   inkscape:version="1.2.2 (732a01da63, 2022-12-09, custom)"
   xmlns:inkscape="http://www.inkscape.org/namespaces/inkscape"
   xmlns:sodipodi="http://sodipodi.sourceforge.net/DTD/sodipodi-0.dtd"
   xmlns="http://www.w3.org/2000/svg"
   xmlns:svg="http://www.w3.org/2000/svg"><defs
   id="defs787"><linearGradient
     id="SVGID_1_-3"
     gradientUnits="userSpaceOnUse"
     x1="85.399002"
     y1="18.619801"
     x2="11.601"
     y2="78.380203">
		<stop
   offset="0"
   style="stop-color:#FBD19E"
   id="stop1311" />
		<stop
   offset="1"
   style="stop-color:#F08701"
   id="stop1313" />
	</linearGradient></defs><sodipodi:namedview
   id="namedview785"
   pagecolor="#ffffff"
   bordercolor="#000000"
   borderopacity="0.25"
   inkscape:showpageshadow="2"
   inkscape:pageopacity="0.0"
   inkscape:pagecheckerboard="0"
   inkscape:deskcolor="#d1d1d1"
   showgrid="false"
   inkscape:zoom="5.0806159"
   inkscape:cx="141.91193"
   inkscape:cy="41.431985"
   inkscape:window-width="1846"
   inkscape:window-height="1016"
   inkscape:window-x="74"
   inkscape:window-y="27"
   inkscape:window-maximized="1"
   inkscape:current-layer="Capa_1" />
<linearGradient
   id="SVGID_1_"
   gradientUnits="userSpaceOnUse"
   x1="19.1382"
   y1="77.8877"
   x2="77.8639"
   y2="19.162">
	<stop
   offset="0"
   style="stop-color:#046973"
   id="stop775" />
	<stop
   offset="1"
   style="stop-color:#34A6AE"
   id="stop777" />
</linearGradient>
<path
   fill-rule="evenodd"
   clip-rule="evenodd"
   fill="url(#SVGID_1_)"
   stroke="#08828B"
   stroke-width="2.0001"
   stroke-linecap="round"
   stroke-linejoin="round"
   stroke-miterlimit="22.9256"
   d="  M12.688,1.163h71.626c6.353,0,11.55,5.197,11.55,11.549v71.625c0,6.353-5.197,11.55-11.55,11.55H12.688  c-6.352,0-11.549-5.197-11.549-11.55V12.711C1.139,6.36,6.336,1.163,12.688,1.163z"
   id="path780" />
<path
   fill="#ffffff"
   d="m 35.13816,14.333 c 1.777,0.02 3.519,0.04 5.188,0.04 0.897,0 1.625,-0.728 1.625,-1.625 0,-0.897 -0.728,-1.625 -1.625,-1.625 -1.658,0 -3.387,-0.02 -5.151,-0.04 -5.091,-0.058 -10.443,-0.116 -15.304,0.278 -2.271,-1.445 -6.074,-2.487 -11.4709996,-3.148 -0.888,-0.112 -1.701,0.525 -1.811,1.416 -0.108,0.891 0.525,1.701 1.416,1.81 2.0379996,0.25 3.7519996,0.552 5.1789996,0.88 -2.77,0.625 -5.1619996,1.545 -6.9589996,2.893 -1.149,-1.285 -3.311,-2.116 -5.90299996,-2.116 -2.59100004,0 -4.75000004,0.832 -5.89700004,2.116 -1.808,-1.355 -4.218,-2.278 -7.0090004,-2.903 1.337,-0.337 2.9280004,-0.648 4.8290004,-0.895 0.89,-0.116 1.518,-0.931 1.402,-1.821 -0.116,-0.89 -0.935,-1.517 -1.821,-1.402 -2.6970004,0.351 -7.7400004,1.241 -10.8670004,3.185 -4.908,-0.41 -10.329,-0.351 -15.479,-0.292 -1.765,0.02 -3.495,0.04 -5.153,0.04 -0.897,0 -1.625,0.728 -1.625,1.625 0,0.897 0.727,1.624 1.624,1.624 1.67,0 3.412,-0.02 5.189,-0.04 4.132,-0.046 8.626,-0.096 12.822,0.123 -0.065,0.268 -0.104,0.545 -0.104,0.835 0,1.628 1.106,2.98 2.949,4.072 -5.087,0.948 -9.159,2.516 -9.159,5.114 0,0.459 0.141,0.882 0.378,1.279 -3.404,1.033 -6.73,2.708 -6.73,5.322 0,1.432 1.091,2.604 2.868,3.571 -3.359,0.964 -5.531,2.232 -5.531,5.137 0,0.825 0.452,1.566 1.342,2.204 0.503,0.361 1.252,0.735 2.195,1.106 -3.948,1.771 -4.918,4.027 -4.918,5.813 0,1.019 0.665,1.941 1.977,2.742 0.276,0.169 0.591,0.335 0.93,0.499 -2.638,0.975 -4.357,2.343 -4.357,4.959 0,1.64 1.79,2.898 3.679,3.771 -2.665,0.986 -4.713,2.471 -4.717,5.19 0,1.449 1.319,2.622 3.908,3.49 -2.286,1.324 -3.449,3.004 -3.453,5.032 0,1.437 1.401,2.81 3.651,3.688 -2.05,1.283 -3.083,2.882 -3.083,4.782 -0.002,1.877 2.215,3.818 5.046,4.421 0.548,0.116 1.218,0.204 1.994,0.204 4.513,0 12.628,-2.963 21.328,-20.282 1.328,-1.702 2.6590004,-3.64 3.9810004,-5.845 1.096,-1.037 2.174,-2.179 3.222,-3.441 l 0.554,11.284 h 7.747 l 0.553,-11.275 c 1.047,1.261 2.123,2.399 3.218,3.436 1.538,2.563 3.0879996,4.77 4.6299996,6.66 8.245,16.263 15.764,19.598 20.532,19.598 0.758,0 1.446,-0.085 2.058,-0.214 2.875,-0.61 5.127,-2.605 5.127,-4.543 0,-2.175 -1.362,-3.7 -3.1,-4.775 2.263,-0.878 3.672,-2.256 3.672,-3.701 -0.005,-2.028 -1.164,-3.709 -3.441,-5.033 2.579,-0.868 3.895,-2.039 3.895,-3.487 -0.003,-2.676 -1.881,-4.203 -4.565,-5.26 1.834,-0.869 3.531,-2.104 3.531,-3.699 0,-2.604 -1.737,-4.039 -4.218,-5.031 0.282,-0.141 0.55,-0.282 0.786,-0.427 1.313,-0.801 1.978,-1.723 1.978,-2.745 -0.003,-1.797 -0.964,-4.064 -4.864,-5.833 0.916,-0.363 1.648,-0.729 2.142,-1.083 0.891,-0.638 1.342,-1.379 1.342,-2.204 0,-2.92 -2.188,-4.167 -5.563,-5.119 1.798,-0.969 2.901,-2.148 2.901,-3.589 0,-2.166 -2.187,-3.824 -6.837,-5.154 0.307,-0.444 0.485,-0.923 0.485,-1.447 0,-2.555 -3.938,-4.115 -8.907,-5.068 1.892,-1.099 3.03,-2.467 3.03,-4.118 0,-0.288 -0.04,-0.563 -0.098,-0.835 4.193,-0.219 8.686,-0.17 12.817,-0.124 z m -53.654,0.959 c 0,-0.132 0.122,-0.333 0.375,-0.574 4.76,0.475 8.8080004,1.453 11.0090004,3.4 -1.504,0.076 -3.1210004,0.183 -4.7680004,0.331 -4.372,-1.006 -6.616,-2.386 -6.616,-3.157 z m 6.442,6.445 c 1.7,0.363 3.5350004,0.641 5.4330004,0.836 l 0.337,5.052 C -16.78684,27.139 -22.91584,25.541 -24.47284,24.478 c 1.245,-0.852 5.419,-2.047 12.399,-2.741 z m -12.845,6.658 c 0.23,-0.055 0.434,-0.159 0.61,-0.294 4.567,1.848 12.466,2.533 18.2230004,2.783 l 0.325,4.857 C -21.11284,35.203 -30.00584,32.651 -31.03684,31.079 c 0.304,-0.423 1.821,-1.649 6.118,-2.684 z m -1.664,8.412 0.139,-0.031 c 0.16,-0.036 0.304,-0.101 0.44,-0.177 6.333,1.568 14.87,2.152 20.4580004,2.368 l 0.235,3.519 C -16.97684,44.34 -31.26184,41.117 -33.66984,39.428 c 0.443,-1.082 2.953,-1.696 7.087,-2.621 z m -1.251,7.909 c 4.178,0.916 9.436,1.583 14.764,1.583 2.689,0 5.3890004,-0.178 7.9760004,-0.569 l 0.146,2.178 C -19.44984,54.051 -33.18384,50.322 -35.09284,48.621 c 0.302,-1.517 2.967,-2.959 7.259,-3.905 z m -1.859,9.21 c 2.248,0.428 4.853,0.694 7.699,0.694 5.2,0 11.201,-0.889 17.2740004,-3.294 l 0.059,0.871 c -8.6260004,7.236 -17.3490004,7.938 -22.1950004,7.596 -5.392,-0.378 -8.901,-2.142 -9.69,-2.945 0.246,-1.216 2.294,-1.846 6.853,-2.922 z m -7.865,11.81 c 0.401,-1.271 3.095,-2.133 7.24,-3.071 1.734,0.321 3.583,0.503 5.515,0.502 4.527,0 9.499,-0.994 14.456,-3.405 -6.928,6.213 -14.218,7.488 -18.435,7.616 -0.676,0.02 -1.311,0.007 -1.923,-0.021 l -10e-4,-0.005 c -0.006,10e-4 -0.011,0.003 -0.017,0.004 -3.611,-0.169 -6.071,-1.073 -6.835,-1.62 z m 6.285,10.228 c -3.373,0.038 -5.37,-1.108 -5.861,-1.605 0.245,-1.44 2.709,-2.808 6.692,-3.729 0.302,0.01 0.606,0.018 0.917,0.018 4.098,0 8.985,-0.878 13.919,-3.355 -5.678,6.444 -10.974,8.243 -14.465,8.599 l -0.008,-0.04 c -0.102,0.022 -0.196,0.047 -0.296,0.069 -0.316,0.024 -0.616,0.038 -0.898,0.043 z m -1.583,8.479 c -2.25,-0.032 -3.479,-1.104 -3.725,-1.506 0.137,-1.451 2.605,-2.849 6.683,-3.794 2.688,-0.235 6.023,-1.131 9.662,-3.461 -5.784,7.754 -10.468,8.808 -12.62,8.761 z m 66.115,0.116 c -2.121,0.059 -6.699,-0.929 -12.429,-8.699 3.354,2.09 6.439,2.965 8.986,3.244 l -0.006,0.029 c 4.462,0.962 6.968,2.314 7.087,3.82 -0.22,0.407 -1.408,1.536 -3.638,1.606 z m -1.666,-8.595 c -3.396,-0.057 -9.293,-1.438 -15.668,-8.671 4.934,2.478 9.82,3.355 13.917,3.354 0.326,0 0.646,-0.008 0.961,-0.018 3.961,0.919 6.41,2.286 6.652,3.729 -0.491,0.497 -2.501,1.631 -5.862,1.606 z m 6.292,-10.235 c -0.752,0.544 -3.213,1.446 -6.812,1.622 -0.009,-0.002 -0.017,-0.004 -0.025,-0.006 l -0.002,0.008 c -0.619,0.029 -1.261,0.044 -1.945,0.024 -4.217,-0.128 -11.508,-1.402 -18.438,-7.615 4.958,2.411 9.93,3.405 14.459,3.405 2.084,-0.001 4.069,-0.215 5.921,-0.586 4.522,1.04 6.532,1.954 6.842,3.148 z m -1.016,-8.882 c -0.789,0.804 -4.3,2.568 -9.694,2.946 -4.847,0.342 -13.568,-0.36 -22.1909996,-7.592 l 0.058,-0.874 C 11.11416,53.732 17.11316,54.62 22.31316,54.62 c 3.011,0 5.749,-0.3 8.083,-0.772 4.196,1.011 6.23,1.753 6.473,2.999 z m -1.458,-8.226 c -1.904,1.7 -15.64,5.43 -30.1419996,-0.712 l 0.146,-2.177 c 2.585,0.391 5.2839996,0.568 7.9719996,0.568 5.369,0 10.666,-0.677 14.859,-1.604 4.236,0.936 6.868,2.387 7.165,3.925 z m -8.665,-11.811 0.339,0.076 c 4.017,0.897 6.461,1.495 6.901,2.542 -2.413,1.688 -16.69,4.912 -28.3549996,3.059 l 0.235,-3.521 C 11.44016,38.751 19.94316,38.169 26.26916,36.611 c 0.146,0.088 0.302,0.16 0.477,0.199 z m 4.606,-5.726 c -1.047,1.571 -9.936,4.118 -25.2709996,4.656 l 0.324,-4.858 C 12.01316,30.638 19.64316,29.98 24.25716,28.24 c 0.176,0.131 0.38,0.231 0.607,0.284 4.532,1.041 6.145,2.121 6.488,2.56 z m -6.56,-6.606 c -1.557,1.063 -7.685,2.66 -18.1689996,3.147 l 0.335,-5.021 c 1.974,-0.191 3.8839996,-0.472 5.6509996,-0.843 6.848,0.697 10.95,1.874 12.183,2.717 z m -5.624,-9.186 c 0,0.777 -2.277,2.171 -6.716,3.178 -1.613,-0.149 -3.2019996,-0.257 -4.6879996,-0.336 2.212,-1.971 6.3099996,-2.952 11.1229996,-3.424 0.186,0.212 0.281,0.41 0.281,0.582 z"
   id="path782" />
<path
   style="clip-rule:evenodd;fill:#ffffff;fill-rule:evenodd;stroke:#ffffff;stroke-width:3.12535;stroke-miterlimit:10"
   d="m 80.362915,75.252276 c 1.18138,1.180753 3.09596,1.180748 4.27735,-3e-6 1.18075,-1.180757 1.18075,-3.095969 -1e-5,-4.276731 L 62.342073,48.510293 84.639825,26.680666 c 1.18075,-1.180139 1.18076,-3.095969 0,-4.277349 -1.18075,-1.180755 -3.09596,-1.180756 -4.27735,-3e-6 L 58.065183,44.2334 c -3.3948,3.166481 -3.19534,5.358108 -2e-5,8.553427 z"
   id="path1322"
   sodipodi:nodetypes="cccccccccc" /></svg>
